<svg xmlns="http://www.w3.org/2000/svg" width="1200" height="520" viewBox="0 0 1200 520" role="img" aria-labelledby="title"><title id="title">Oscar Emilio Albornoz — Engineer &amp; Founder of NivuSoftware, Watones Network and Teramont Host. I build what’s next.</title><rect x="1" y="1" width="1198" height="518" rx="24" fill="#0c1118" stroke="#253449"/><text x="50" y="55" font-family="DejaVu Sans Mono, monospace" font-size="18" font-weight="500" fill="#77dfee">OSCCARJR / ENGINEER &amp; FOUNDER</text><text x="50" y="113" font-family="Arial, Helvetica, sans-serif" font-size="38" font-weight="700" fill="#f0f5fc">Oscar Emilio Albornoz</text><text x="47" y="210" font-family="Arial, Helvetica, sans-serif" font-size="96" font-weight="800" fill="#f0f5fc">I BUILD</text><text x="47" y="306" font-family="Arial, Helvetica, sans-serif" font-size="96" font-weight="800" fill="#f0f5fc">WHAT’S NEXT.</text><text x="52" y="359" font-family="Arial, Helvetica, sans-serif" font-size="26" font-weight="400" fill="#a0aec0">Software. Communities. Infrastructure.</text><path d="M770 75V382" stroke="#253449" opacity=".38"/><path d="M808 75V382" stroke="#253449" opacity=".38"/><path d="M846 75V382" stroke="#253449" opacity=".38"/><path d="M884 75V382" stroke="#253449" opacity=".38"/><path d="M922 75V382" stroke="#253449" opacity=".38"/><path d="M960 75V382" stroke="#253449" opacity=".38"/><path d="M998 75V382" stroke="#253449" opacity=".38"/><path d="M1036 75V382" stroke="#253449" opacity=".38"/><path d="M1074 75V382" stroke="#253449" opacity=".38"/><path d="M1112 75V382" stroke="#253449" opacity=".38"/><path d="M1150 75V382" stroke="#253449" opacity=".38"/><path d="M766 78H1155" stroke="#253449" opacity=".38"/><path d="M766 116H1155" stroke="#253449" opacity=".38"/><path d="M766 154H1155" stroke="#253449" opacity=".38"/><path d="M766 192H1155" stroke="#253449" opacity=".38"/><path d="M766 230H1155" stroke="#253449" opacity=".38"/><path d="M766 268H1155" stroke="#253449" opacity=".38"/><path d="M766 306H1155" stroke="#253449" opacity=".38"/><path d="M766 344H1155" stroke="#253449" opacity=".38"/><path d="M766 382H1155" stroke="#253449" opacity=".38"/><circle cx="956" cy="224" r="69" fill="none" stroke="#253449"/><circle cx="956" cy="224" r="106" fill="none" stroke="#253449"/><circle cx="956" cy="224" r="144" fill="none" stroke="#253449"/><path d="M850 118L1062 118L1130 224L1062 330L850 330L782 224Z" fill="none" stroke="#77dfee" opacity=".6"/><path d="M890 224L956 186L1022 224L956 262Z" fill="#121c29" stroke="#77dfee" stroke-width="2"/><path d="M890 224V266L956 304L1022 266V224M956 262V304" fill="none" stroke="#77dfee" stroke-width="2"/><text x="930" y="232" font-family="Arial, Helvetica, sans-serif" font-size="24" font-weight="700" fill="#f0f5fc">EA</text><circle cx="850" cy="118" r="7" fill="#8abbff"/><circle cx="1130" cy="224" r="7" fill="#ffc281"/><circle cx="850" cy="330" r="7" fill="#77dfee"/><text x="808" y="95" font-family="DejaVu Sans Mono, monospace" font-size="15" font-weight="500" fill="#8abbff">NIVU</text><text x="1040" y="199" font-family="DejaVu Sans Mono, monospace" font-size="15" font-weight="500" fill="#ffc281">WATONES</text><text x="795" y="363" font-family="DejaVu Sans Mono, monospace" font-size="15" font-weight="500" fill="#77dfee">TERAMONT</text><path d="M50 408H1150" stroke="#253449"/><text x="50" y="452" font-family="Arial, Helvetica, sans-serif" font-size="26" font-weight="700" fill="#f0f5fc">NivuSoftware</text><text x="50" y="483" font-family="DejaVu Sans Mono, monospace" font-size="14" font-weight="500" fill="#8abbff">CUSTOM SOFTWARE</text><text x="430" y="452" font-family="Arial, Helvetica, sans-serif" font-size="26" font-weight="700" fill="#f0f5fc">Watones Network</text><text x="430" y="483" font-family="DejaVu Sans Mono, monospace" font-size="14" font-weight="500" fill="#ffc281">GAMING &amp; COMMUNITY</text><text x="835" y="452" font-family="Arial, Helvetica, sans-serif" font-size="26" font-weight="700" fill="#f0f5fc">Teramont Host</text><text x="835" y="483" font-family="DejaVu Sans Mono, monospace" font-size="14" font-weight="500" fill="#77dfee">HOSTING &amp; INFRASTRUCTURE</text></svg>