<svg xmlns="http://www.w3.org/2000/svg" width="1200" height="240" viewBox="0 0 1200 240" role="img" aria-labelledby="title"><title id="title">NivuSoftware — Owner &amp; Founder. CUSTOM SOFTWARE &amp; DIGITAL PRODUCTS. Turning business ideas into working software.</title><rect x="1" y="1" width="1198" height="238" rx="22" fill="#0c1118" stroke="#253449"/><rect x="25" y="25" width="5" height="190" rx="2" fill="#8abbff" stroke="none"/><text x="52" y="54" font-family="DejaVu Sans Mono, monospace" font-size="16" font-weight="500" fill="#8abbff">01 / CUSTOM SOFTWARE &amp; DIGITAL PRODUCTS</text><text x="50" y="109" font-family="Arial, Helvetica, sans-serif" font-size="43" font-weight="700" fill="#f0f5fc">NivuSoftware</text><text x="52" y="151" font-family="Arial, Helvetica, sans-serif" font-size="23" font-weight="400" fill="#a0aec0">Turning business ideas into working software.</text><text x="52" y="199" font-family="DejaVu Sans Mono, monospace" font-size="15" font-weight="500" fill="#8abbff">WEB / APPS / AUTOMATION</text><rect x="952" y="27" width="199" height="34" rx="17" fill="#121c29" stroke="#253449"/><text x="973" y="50" font-family="DejaVu Sans Mono, monospace" font-size="13" font-weight="500" fill="#8abbff">OWNER &amp; FOUNDER</text><rect x="899" y="87" width="191" height="111" rx="13" fill="#121c29" stroke="#253449"/><path d="M899 112H1090" stroke="#253449"/><circle cx="915" cy="100" r="3" fill="#8abbff"/><circle cx="928" cy="100" r="3" fill="#8abbff"/><circle cx="941" cy="100" r="3" fill="#8abbff"/><path d="M965 135L946 154L965 173M1025 135L1044 154L1025 173M1005 128L984 180" fill="none" stroke="#8abbff" stroke-width="3"/><rect x="1099" y="132" width="46" height="74" rx="7" fill="#0c1118" stroke="#8abbff"/></svg>