<svg xmlns="http://www.w3.org/2000/svg" width="1200" height="240" viewBox="0 0 1200 240" role="img" aria-labelledby="title"><title id="title">Teramont Host — Owner &amp; Founder. HOSTING &amp; INFRASTRUCTURE. The foundation for projects to go live and grow.</title><rect x="1" y="1" width="1198" height="238" rx="22" fill="#f5f8fc" stroke="#cad8e8"/><rect x="25" y="25" width="5" height="190" rx="2" fill="#00778b" stroke="none"/><text x="52" y="54" font-family="DejaVu Sans Mono, monospace" font-size="16" font-weight="500" fill="#00778b">03 / HOSTING &amp; INFRASTRUCTURE</text><text x="50" y="109" font-family="Arial, Helvetica, sans-serif" font-size="43" font-weight="700" fill="#13233a">Teramont Host</text><text x="52" y="151" font-family="Arial, Helvetica, sans-serif" font-size="23" font-weight="400" fill="#4e6178">The foundation for projects to go live and grow.</text><text x="52" y="199" font-family="DejaVu Sans Mono, monospace" font-size="15" font-weight="500" fill="#00778b">VPS / WEB / GAME SERVERS</text><rect x="952" y="27" width="199" height="34" rx="17" fill="#e9f0f8" stroke="#cad8e8"/><text x="973" y="50" font-family="DejaVu Sans Mono, monospace" font-size="13" font-weight="500" fill="#00778b">OWNER &amp; FOUNDER</text><rect x="939" y="88" width="198" height="30" rx="7" fill="#e9f0f8" stroke="#cad8e8"/><circle cx="956" cy="103" r="4" fill="#00778b"/><path d="M1030 99H1120M1030 107H1120" stroke="#00778b" opacity=".6"/><rect x="939" y="126" width="198" height="30" rx="7" fill="#e9f0f8" stroke="#cad8e8"/><circle cx="956" cy="141" r="4" fill="#00778b"/><path d="M1030 137H1120M1030 145H1120" stroke="#00778b" opacity=".6"/><rect x="939" y="164" width="198" height="30" rx="7" fill="#e9f0f8" stroke="#cad8e8"/><circle cx="956" cy="179" r="4" fill="#00778b"/><path d="M1030 175H1120M1030 183H1120" stroke="#00778b" opacity=".6"/></svg>